<mxfile host="app.diagrams.net" modified="2024-01-26T09:04:17.623Z" agent="Mozilla/5.0 (Macintosh; Intel Mac OS X 10_15_7) AppleWebKit/537.36 (KHTML, like Gecko) Chrome/120.0.0.0 Safari/537.36" etag="Lj78-AqbOIRb0pazeiWz" version="23.0.2" type="device" pages="2">
  <diagram name="Trang-1" id="Hb33xli_GPp8fjIGqGy5">
    <mxGraphModel dx="1314" dy="2001" grid="1" gridSize="10" guides="1" tooltips="1" connect="1" arrows="1" fold="1" page="1" pageScale="1" pageWidth="827" pageHeight="1169" math="0" shadow="0">
      <root>
        <mxCell id="0" />
        <mxCell id="1" parent="0" />
        <mxCell id="JHJsZCP_RoubWGv-RQ8A-1" value="Admin/Employee" style="shape=umlActor;verticalLabelPosition=bottom;verticalAlign=top;html=1;outlineConnect=0;" parent="1" vertex="1">
          <mxGeometry x="100" y="-950" width="30" height="60" as="geometry" />
        </mxCell>
        <mxCell id="JHJsZCP_RoubWGv-RQ8A-2" value="View list of prescription" style="ellipse;whiteSpace=wrap;html=1;" parent="1" vertex="1">
          <mxGeometry x="250" y="-965" width="157" height="90" as="geometry" />
        </mxCell>
        <mxCell id="JHJsZCP_RoubWGv-RQ8A-6" value="&lt;b&gt;Manage prescription information&lt;/b&gt;" style="shape=umlFrame;whiteSpace=wrap;html=1;pointerEvents=0;width=180;height=40;strokeWidth=2;" parent="1" vertex="1">
          <mxGeometry x="210" y="-1110" width="750" height="490" as="geometry" />
        </mxCell>
        <mxCell id="JHJsZCP_RoubWGv-RQ8A-8" value="Log in" style="ellipse;whiteSpace=wrap;html=1;" parent="1" vertex="1">
          <mxGeometry x="600" y="-1090" width="120" height="80" as="geometry" />
        </mxCell>
        <mxCell id="JHJsZCP_RoubWGv-RQ8A-9" value="Add new prescription" style="ellipse;whiteSpace=wrap;html=1;" parent="1" vertex="1">
          <mxGeometry x="610" y="-980" width="120" height="80" as="geometry" />
        </mxCell>
        <mxCell id="JHJsZCP_RoubWGv-RQ8A-10" value="Update prescription&amp;nbsp;" style="ellipse;whiteSpace=wrap;html=1;" parent="1" vertex="1">
          <mxGeometry x="610" y="-860" width="120" height="80" as="geometry" />
        </mxCell>
        <mxCell id="JHJsZCP_RoubWGv-RQ8A-12" value="&lt;font style=&quot;font-size: 13px;&quot;&gt;&amp;lt;&amp;lt;include&amp;gt;&amp;gt;&lt;/font&gt;" style="html=1;verticalAlign=bottom;endArrow=open;dashed=1;endSize=8;curved=0;rounded=0;strokeWidth=1;" parent="1" source="JHJsZCP_RoubWGv-RQ8A-2" target="JHJsZCP_RoubWGv-RQ8A-8" edge="1">
          <mxGeometry x="-0.2341" y="29" relative="1" as="geometry">
            <mxPoint x="540" y="-816" as="sourcePoint" />
            <mxPoint x="460" y="-816" as="targetPoint" />
            <mxPoint as="offset" />
          </mxGeometry>
        </mxCell>
        <mxCell id="JHJsZCP_RoubWGv-RQ8A-16" value="&lt;font style=&quot;font-size: 15px;&quot;&gt;&amp;lt;&amp;lt;extend&amp;gt;&amp;gt;&lt;/font&gt;" style="html=1;verticalAlign=bottom;endArrow=open;dashed=1;endSize=8;curved=0;rounded=0;strokeWidth=1;entryX=0.975;entryY=0.644;entryDx=0;entryDy=0;entryPerimeter=0;" parent="1" source="JHJsZCP_RoubWGv-RQ8A-10" target="JHJsZCP_RoubWGv-RQ8A-2" edge="1">
          <mxGeometry x="-0.1795" y="-4" relative="1" as="geometry">
            <mxPoint x="440" y="-782.29" as="sourcePoint" />
            <mxPoint x="552.01" y="-748.03" as="targetPoint" />
            <mxPoint as="offset" />
          </mxGeometry>
        </mxCell>
        <mxCell id="JHJsZCP_RoubWGv-RQ8A-18" value="" style="endArrow=none;html=1;rounded=0;entryX=0;entryY=0.5;entryDx=0;entryDy=0;exitX=0.5;exitY=0.5;exitDx=0;exitDy=0;exitPerimeter=0;" parent="1" source="JHJsZCP_RoubWGv-RQ8A-1" target="JHJsZCP_RoubWGv-RQ8A-2" edge="1">
          <mxGeometry width="50" height="50" relative="1" as="geometry">
            <mxPoint x="150" y="-775" as="sourcePoint" />
            <mxPoint x="310" y="-860" as="targetPoint" />
            <Array as="points" />
          </mxGeometry>
        </mxCell>
        <mxCell id="amQCcpCkS8rDXFo1Lir8-4" value="" style="endArrow=block;html=1;rounded=0;endFill=0;exitX=0.025;exitY=0.6;exitDx=0;exitDy=0;entryX=1;entryY=0.5;entryDx=0;entryDy=0;exitPerimeter=0;" parent="1" source="PGMovxBzatp9qkB7L8K9-3" target="JHJsZCP_RoubWGv-RQ8A-8" edge="1">
          <mxGeometry width="50" height="50" relative="1" as="geometry">
            <mxPoint x="670" y="-920" as="sourcePoint" />
            <mxPoint x="559.996441873664" y="-905.2500975692653" as="targetPoint" />
            <Array as="points" />
          </mxGeometry>
        </mxCell>
        <mxCell id="PGMovxBzatp9qkB7L8K9-3" value="Login by Facebook" style="ellipse;whiteSpace=wrap;html=1;" parent="1" vertex="1">
          <mxGeometry x="827" y="-1100" width="120" height="80" as="geometry" />
        </mxCell>
        <mxCell id="PGMovxBzatp9qkB7L8K9-4" value="&lt;font style=&quot;font-size: 14px;&quot;&gt;&amp;lt;&amp;lt;extend&amp;gt;&amp;gt;&lt;/font&gt;" style="html=1;verticalAlign=bottom;endArrow=open;dashed=1;endSize=8;curved=0;rounded=0;exitX=0.008;exitY=0.588;exitDx=0;exitDy=0;exitPerimeter=0;entryX=0.962;entryY=0.344;entryDx=0;entryDy=0;entryPerimeter=0;strokeWidth=1;" parent="1" source="JHJsZCP_RoubWGv-RQ8A-9" target="JHJsZCP_RoubWGv-RQ8A-2" edge="1">
          <mxGeometry x="-0.2284" y="-7" relative="1" as="geometry">
            <mxPoint x="600" y="-950" as="sourcePoint" />
            <mxPoint x="393.07500000000005" y="-801.04" as="targetPoint" />
            <mxPoint as="offset" />
          </mxGeometry>
        </mxCell>
        <mxCell id="PGMovxBzatp9qkB7L8K9-6" value="Delete prescription&amp;nbsp;" style="ellipse;whiteSpace=wrap;html=1;" parent="1" vertex="1">
          <mxGeometry x="610" y="-750" width="120" height="80" as="geometry" />
        </mxCell>
        <mxCell id="PGMovxBzatp9qkB7L8K9-7" value="&lt;font style=&quot;font-size: 14px;&quot;&gt;&amp;lt;&amp;lt;extend&amp;gt;&amp;gt;&lt;/font&gt;" style="html=1;verticalAlign=bottom;endArrow=open;dashed=1;endSize=8;curved=0;rounded=0;exitX=0;exitY=0.5;exitDx=0;exitDy=0;entryX=1;entryY=1;entryDx=0;entryDy=0;strokeWidth=1;" parent="1" source="PGMovxBzatp9qkB7L8K9-6" target="JHJsZCP_RoubWGv-RQ8A-2" edge="1">
          <mxGeometry x="-0.2821" y="-8" relative="1" as="geometry">
            <mxPoint x="507" y="-672" as="sourcePoint" />
            <mxPoint x="320" y="-730" as="targetPoint" />
            <mxPoint as="offset" />
          </mxGeometry>
        </mxCell>
        <mxCell id="PGMovxBzatp9qkB7L8K9-8" value="Confirm delete" style="ellipse;whiteSpace=wrap;html=1;" parent="1" vertex="1">
          <mxGeometry x="827" y="-750" width="120" height="80" as="geometry" />
        </mxCell>
        <mxCell id="PGMovxBzatp9qkB7L8K9-9" value="&lt;font style=&quot;font-size: 13px;&quot;&gt;&amp;lt;&amp;lt;include&amp;gt;&amp;gt;&lt;/font&gt;" style="html=1;verticalAlign=bottom;endArrow=open;dashed=1;endSize=8;curved=0;rounded=0;exitX=1.033;exitY=0.588;exitDx=0;exitDy=0;exitPerimeter=0;entryX=0.017;entryY=0.588;entryDx=0;entryDy=0;entryPerimeter=0;" parent="1" source="PGMovxBzatp9qkB7L8K9-6" target="PGMovxBzatp9qkB7L8K9-8" edge="1">
          <mxGeometry x="-0.0316" y="17" relative="1" as="geometry">
            <mxPoint x="534" y="-612" as="sourcePoint" />
            <mxPoint x="827" y="-710" as="targetPoint" />
            <mxPoint as="offset" />
          </mxGeometry>
        </mxCell>
      </root>
    </mxGraphModel>
  </diagram>
  <diagram id="QLZoMNxCDZKGuMowVPg3" name="Trang-2">
    <mxGraphModel dx="1314" dy="2001" grid="1" gridSize="10" guides="1" tooltips="1" connect="1" arrows="1" fold="1" page="1" pageScale="1" pageWidth="827" pageHeight="1169" math="0" shadow="0">
      <root>
        <mxCell id="0" />
        <mxCell id="1" parent="0" />
        <mxCell id="en4tqzYNCNXn3bQ0T1J--1" value="" style="rounded=0;whiteSpace=wrap;html=1;strokeWidth=1;" vertex="1" parent="1">
          <mxGeometry x="50" y="-1160" width="980" height="1060" as="geometry" />
        </mxCell>
        <mxCell id="en4tqzYNCNXn3bQ0T1J--2" value="Admin/Employee" style="shape=umlActor;verticalLabelPosition=bottom;verticalAlign=top;html=1;outlineConnect=0;" vertex="1" parent="1">
          <mxGeometry x="100" y="-795" width="30" height="60" as="geometry" />
        </mxCell>
        <mxCell id="en4tqzYNCNXn3bQ0T1J--3" value="View list of prescription" style="ellipse;whiteSpace=wrap;html=1;" vertex="1" parent="1">
          <mxGeometry x="250" y="-820" width="157" height="90" as="geometry" />
        </mxCell>
        <mxCell id="en4tqzYNCNXn3bQ0T1J--4" value="Manage prescription information" style="shape=umlFrame;whiteSpace=wrap;html=1;pointerEvents=0;width=180;height=40;" vertex="1" parent="1">
          <mxGeometry x="210" y="-1110" width="750" height="970" as="geometry" />
        </mxCell>
        <mxCell id="en4tqzYNCNXn3bQ0T1J--5" value="Log in" style="ellipse;whiteSpace=wrap;html=1;" vertex="1" parent="1">
          <mxGeometry x="600" y="-1090" width="120" height="80" as="geometry" />
        </mxCell>
        <mxCell id="en4tqzYNCNXn3bQ0T1J--6" value="Add new prescription" style="ellipse;whiteSpace=wrap;html=1;" vertex="1" parent="1">
          <mxGeometry x="610" y="-980" width="120" height="80" as="geometry" />
        </mxCell>
        <mxCell id="en4tqzYNCNXn3bQ0T1J--7" value="Update prescription&amp;nbsp;" style="ellipse;whiteSpace=wrap;html=1;" vertex="1" parent="1">
          <mxGeometry x="610" y="-860" width="120" height="80" as="geometry" />
        </mxCell>
        <mxCell id="en4tqzYNCNXn3bQ0T1J--8" value="&lt;font style=&quot;font-size: 13px;&quot;&gt;&amp;lt;&amp;lt;include&amp;gt;&amp;gt;&lt;/font&gt;" style="html=1;verticalAlign=bottom;endArrow=open;dashed=1;endSize=8;curved=0;rounded=0;strokeWidth=1;" edge="1" parent="1" source="en4tqzYNCNXn3bQ0T1J--3" target="en4tqzYNCNXn3bQ0T1J--5">
          <mxGeometry x="-0.2341" y="29" relative="1" as="geometry">
            <mxPoint x="540" y="-816" as="sourcePoint" />
            <mxPoint x="460" y="-816" as="targetPoint" />
            <mxPoint as="offset" />
          </mxGeometry>
        </mxCell>
        <mxCell id="en4tqzYNCNXn3bQ0T1J--9" value="&lt;font style=&quot;font-size: 15px;&quot;&gt;&amp;lt;&amp;lt;extend&amp;gt;&amp;gt;&lt;/font&gt;" style="html=1;verticalAlign=bottom;endArrow=open;dashed=1;endSize=8;curved=0;rounded=0;strokeWidth=1;entryX=0.975;entryY=0.644;entryDx=0;entryDy=0;entryPerimeter=0;" edge="1" parent="1" source="en4tqzYNCNXn3bQ0T1J--7" target="en4tqzYNCNXn3bQ0T1J--3">
          <mxGeometry x="0.0148" y="-11" relative="1" as="geometry">
            <mxPoint x="440" y="-782.29" as="sourcePoint" />
            <mxPoint x="552.01" y="-748.03" as="targetPoint" />
            <mxPoint as="offset" />
          </mxGeometry>
        </mxCell>
        <mxCell id="en4tqzYNCNXn3bQ0T1J--10" value="" style="endArrow=none;html=1;rounded=0;entryX=0;entryY=0.5;entryDx=0;entryDy=0;exitX=0.5;exitY=0.5;exitDx=0;exitDy=0;exitPerimeter=0;" edge="1" parent="1" source="en4tqzYNCNXn3bQ0T1J--2" target="en4tqzYNCNXn3bQ0T1J--3">
          <mxGeometry width="50" height="50" relative="1" as="geometry">
            <mxPoint x="150" y="-775" as="sourcePoint" />
            <mxPoint x="310" y="-860" as="targetPoint" />
            <Array as="points" />
          </mxGeometry>
        </mxCell>
        <mxCell id="en4tqzYNCNXn3bQ0T1J--11" value="" style="endArrow=block;html=1;rounded=0;endFill=0;exitX=0.025;exitY=0.6;exitDx=0;exitDy=0;entryX=1;entryY=0.5;entryDx=0;entryDy=0;exitPerimeter=0;" edge="1" parent="1" source="en4tqzYNCNXn3bQ0T1J--12" target="en4tqzYNCNXn3bQ0T1J--5">
          <mxGeometry width="50" height="50" relative="1" as="geometry">
            <mxPoint x="670" y="-920" as="sourcePoint" />
            <mxPoint x="559.996441873664" y="-905.2500975692653" as="targetPoint" />
            <Array as="points" />
          </mxGeometry>
        </mxCell>
        <mxCell id="en4tqzYNCNXn3bQ0T1J--12" value="Login by Facebook" style="ellipse;whiteSpace=wrap;html=1;" vertex="1" parent="1">
          <mxGeometry x="827" y="-1100" width="120" height="80" as="geometry" />
        </mxCell>
        <mxCell id="en4tqzYNCNXn3bQ0T1J--13" value="&lt;font style=&quot;font-size: 14px;&quot;&gt;&amp;lt;&amp;lt;extend&amp;gt;&amp;gt;&lt;/font&gt;" style="html=1;verticalAlign=bottom;endArrow=open;dashed=1;endSize=8;curved=0;rounded=0;exitX=0.008;exitY=0.588;exitDx=0;exitDy=0;exitPerimeter=0;entryX=0.962;entryY=0.344;entryDx=0;entryDy=0;entryPerimeter=0;strokeWidth=1;" edge="1" parent="1" source="en4tqzYNCNXn3bQ0T1J--6" target="en4tqzYNCNXn3bQ0T1J--3">
          <mxGeometry x="-0.1931" y="32" relative="1" as="geometry">
            <mxPoint x="600" y="-950" as="sourcePoint" />
            <mxPoint x="393.07500000000005" y="-801.04" as="targetPoint" />
            <mxPoint as="offset" />
          </mxGeometry>
        </mxCell>
        <mxCell id="en4tqzYNCNXn3bQ0T1J--14" value="Delete prescription&amp;nbsp;" style="ellipse;whiteSpace=wrap;html=1;" vertex="1" parent="1">
          <mxGeometry x="610" y="-750" width="120" height="80" as="geometry" />
        </mxCell>
        <mxCell id="en4tqzYNCNXn3bQ0T1J--15" value="&lt;font style=&quot;font-size: 14px;&quot;&gt;&amp;lt;&amp;lt;extend&amp;gt;&amp;gt;&lt;/font&gt;" style="html=1;verticalAlign=bottom;endArrow=open;dashed=1;endSize=8;curved=0;rounded=0;exitX=0;exitY=0.5;exitDx=0;exitDy=0;entryX=1;entryY=1;entryDx=0;entryDy=0;strokeWidth=1;" edge="1" parent="1" source="en4tqzYNCNXn3bQ0T1J--14" target="en4tqzYNCNXn3bQ0T1J--3">
          <mxGeometry x="-0.2821" y="-8" relative="1" as="geometry">
            <mxPoint x="507" y="-672" as="sourcePoint" />
            <mxPoint x="320" y="-730" as="targetPoint" />
            <mxPoint as="offset" />
          </mxGeometry>
        </mxCell>
        <mxCell id="en4tqzYNCNXn3bQ0T1J--16" value="Confirm delete" style="ellipse;whiteSpace=wrap;html=1;" vertex="1" parent="1">
          <mxGeometry x="827" y="-750" width="120" height="80" as="geometry" />
        </mxCell>
        <mxCell id="en4tqzYNCNXn3bQ0T1J--17" value="&lt;font style=&quot;font-size: 13px;&quot;&gt;&amp;lt;&amp;lt;include&amp;gt;&amp;gt;&lt;/font&gt;" style="html=1;verticalAlign=bottom;endArrow=open;dashed=1;endSize=8;curved=0;rounded=0;exitX=1.033;exitY=0.588;exitDx=0;exitDy=0;exitPerimeter=0;entryX=0.017;entryY=0.588;entryDx=0;entryDy=0;entryPerimeter=0;" edge="1" parent="1" source="en4tqzYNCNXn3bQ0T1J--14" target="en4tqzYNCNXn3bQ0T1J--16">
          <mxGeometry x="-0.0316" y="17" relative="1" as="geometry">
            <mxPoint x="534" y="-612" as="sourcePoint" />
            <mxPoint x="827" y="-710" as="targetPoint" />
            <mxPoint as="offset" />
          </mxGeometry>
        </mxCell>
        <mxCell id="en4tqzYNCNXn3bQ0T1J--18" value="Filter prescription" style="ellipse;whiteSpace=wrap;html=1;" vertex="1" parent="1">
          <mxGeometry x="287" y="-610" width="120" height="80" as="geometry" />
        </mxCell>
        <mxCell id="en4tqzYNCNXn3bQ0T1J--19" value="&lt;font style=&quot;font-size: 14px;&quot;&gt;&amp;lt;&amp;lt;extend&amp;gt;&amp;gt;&lt;/font&gt;" style="html=1;verticalAlign=bottom;endArrow=open;dashed=1;endSize=8;curved=0;rounded=0;exitX=0.5;exitY=0;exitDx=0;exitDy=0;entryX=0.586;entryY=1.017;entryDx=0;entryDy=0;strokeWidth=1;entryPerimeter=0;" edge="1" parent="1" source="en4tqzYNCNXn3bQ0T1J--18" target="en4tqzYNCNXn3bQ0T1J--3">
          <mxGeometry x="0.2472" y="38" relative="1" as="geometry">
            <mxPoint x="566" y="-571" as="sourcePoint" />
            <mxPoint x="330" y="-730" as="targetPoint" />
            <mxPoint x="1" as="offset" />
          </mxGeometry>
        </mxCell>
        <mxCell id="en4tqzYNCNXn3bQ0T1J--20" value="&lt;font style=&quot;font-size: 13px;&quot;&gt;Filter by symptom&lt;/font&gt;" style="ellipse;whiteSpace=wrap;html=1;" vertex="1" parent="1">
          <mxGeometry x="220" y="-420" width="120" height="80" as="geometry" />
        </mxCell>
        <mxCell id="en4tqzYNCNXn3bQ0T1J--21" value="&lt;font style=&quot;font-size: 13px;&quot;&gt;Filter by text&lt;/font&gt;" style="ellipse;whiteSpace=wrap;html=1;" vertex="1" parent="1">
          <mxGeometry x="600" y="-540" width="120" height="80" as="geometry" />
        </mxCell>
        <mxCell id="en4tqzYNCNXn3bQ0T1J--22" value="" style="endArrow=block;html=1;rounded=0;endFill=0;exitX=0.5;exitY=0;exitDx=0;exitDy=0;entryX=0.233;entryY=0.963;entryDx=0;entryDy=0;entryPerimeter=0;" edge="1" parent="1" source="en4tqzYNCNXn3bQ0T1J--20" target="en4tqzYNCNXn3bQ0T1J--18">
          <mxGeometry width="50" height="50" relative="1" as="geometry">
            <mxPoint x="460" y="-544" as="sourcePoint" />
            <mxPoint x="347" y="-522" as="targetPoint" />
            <Array as="points" />
          </mxGeometry>
        </mxCell>
        <mxCell id="en4tqzYNCNXn3bQ0T1J--23" value="" style="endArrow=block;html=1;rounded=0;endFill=0;exitX=0.033;exitY=0.4;exitDx=0;exitDy=0;entryX=1.017;entryY=0.6;entryDx=0;entryDy=0;entryPerimeter=0;exitPerimeter=0;" edge="1" parent="1" source="en4tqzYNCNXn3bQ0T1J--21" target="en4tqzYNCNXn3bQ0T1J--18">
          <mxGeometry width="50" height="50" relative="1" as="geometry">
            <mxPoint x="320" y="-430" as="sourcePoint" />
            <mxPoint x="363" y="-518" as="targetPoint" />
            <Array as="points" />
          </mxGeometry>
        </mxCell>
        <mxCell id="en4tqzYNCNXn3bQ0T1J--24" value="&lt;font style=&quot;font-size: 13px;&quot;&gt;Filter by target&lt;/font&gt;" style="ellipse;whiteSpace=wrap;html=1;" vertex="1" parent="1">
          <mxGeometry x="600" y="-440" width="120" height="80" as="geometry" />
        </mxCell>
        <mxCell id="en4tqzYNCNXn3bQ0T1J--25" value="&lt;font style=&quot;font-size: 13px;&quot;&gt;Filter by name prescription&lt;/font&gt;" style="ellipse;whiteSpace=wrap;html=1;" vertex="1" parent="1">
          <mxGeometry x="600" y="-640" width="120" height="80" as="geometry" />
        </mxCell>
        <mxCell id="en4tqzYNCNXn3bQ0T1J--26" value="" style="endArrow=block;html=1;rounded=0;endFill=0;exitX=0;exitY=0.5;exitDx=0;exitDy=0;entryX=0.8;entryY=0.1;entryDx=0;entryDy=0;entryPerimeter=0;" edge="1" parent="1" source="en4tqzYNCNXn3bQ0T1J--25" target="en4tqzYNCNXn3bQ0T1J--18">
          <mxGeometry width="50" height="50" relative="1" as="geometry">
            <mxPoint x="812" y="-440" as="sourcePoint" />
            <mxPoint x="780" y="-522" as="targetPoint" />
            <Array as="points" />
          </mxGeometry>
        </mxCell>
        <mxCell id="en4tqzYNCNXn3bQ0T1J--27" value="" style="endArrow=block;html=1;rounded=0;endFill=0;exitX=0;exitY=0.5;exitDx=0;exitDy=0;entryX=1;entryY=1;entryDx=0;entryDy=0;" edge="1" parent="1" source="en4tqzYNCNXn3bQ0T1J--24" target="en4tqzYNCNXn3bQ0T1J--18">
          <mxGeometry width="50" height="50" relative="1" as="geometry">
            <mxPoint x="642" y="-440" as="sourcePoint" />
            <mxPoint x="580" y="-510" as="targetPoint" />
            <Array as="points" />
          </mxGeometry>
        </mxCell>
        <mxCell id="en4tqzYNCNXn3bQ0T1J--28" value="&lt;font style=&quot;font-size: 13px;&quot;&gt;Sorting&lt;br&gt;&lt;/font&gt;" style="ellipse;whiteSpace=wrap;html=1;" vertex="1" parent="1">
          <mxGeometry x="400" y="-420" width="120" height="80" as="geometry" />
        </mxCell>
        <mxCell id="en4tqzYNCNXn3bQ0T1J--29" style="edgeStyle=orthogonalEdgeStyle;rounded=0;orthogonalLoop=1;jettySize=auto;html=1;exitX=0.5;exitY=1;exitDx=0;exitDy=0;" edge="1" parent="1" source="en4tqzYNCNXn3bQ0T1J--18" target="en4tqzYNCNXn3bQ0T1J--18">
          <mxGeometry relative="1" as="geometry" />
        </mxCell>
        <mxCell id="en4tqzYNCNXn3bQ0T1J--30" value="" style="endArrow=block;html=1;rounded=0;endFill=0;exitX=0.5;exitY=0;exitDx=0;exitDy=0;entryX=0.5;entryY=1;entryDx=0;entryDy=0;" edge="1" parent="1" source="en4tqzYNCNXn3bQ0T1J--28" target="en4tqzYNCNXn3bQ0T1J--18">
          <mxGeometry width="50" height="50" relative="1" as="geometry">
            <mxPoint x="339" y="-400" as="sourcePoint" />
            <mxPoint x="339" y="-490" as="targetPoint" />
            <Array as="points" />
          </mxGeometry>
        </mxCell>
        <mxCell id="en4tqzYNCNXn3bQ0T1J--31" value="&lt;font style=&quot;font-size: 13px;&quot;&gt;Sorting by prescription code&lt;br&gt;&lt;/font&gt;" style="ellipse;whiteSpace=wrap;html=1;" vertex="1" parent="1">
          <mxGeometry x="690" y="-250" width="120" height="80" as="geometry" />
        </mxCell>
        <mxCell id="en4tqzYNCNXn3bQ0T1J--32" value="&lt;font style=&quot;font-size: 13px;&quot;&gt;Sorting by name prescription&lt;br&gt;&lt;/font&gt;" style="ellipse;whiteSpace=wrap;html=1;" vertex="1" parent="1">
          <mxGeometry x="220" y="-250" width="120" height="80" as="geometry" />
        </mxCell>
        <mxCell id="en4tqzYNCNXn3bQ0T1J--33" value="&lt;font style=&quot;font-size: 13px;&quot;&gt;Sorting by target&lt;br&gt;&lt;/font&gt;" style="ellipse;whiteSpace=wrap;html=1;" vertex="1" parent="1">
          <mxGeometry x="360" y="-250" width="120" height="80" as="geometry" />
        </mxCell>
        <mxCell id="en4tqzYNCNXn3bQ0T1J--34" value="&lt;font style=&quot;font-size: 13px;&quot;&gt;Sorting by symptom&lt;br&gt;&lt;/font&gt;" style="ellipse;whiteSpace=wrap;html=1;" vertex="1" parent="1">
          <mxGeometry x="520" y="-250" width="120" height="80" as="geometry" />
        </mxCell>
        <mxCell id="en4tqzYNCNXn3bQ0T1J--35" value="" style="endArrow=block;html=1;rounded=0;endFill=0;exitX=0.5;exitY=0;exitDx=0;exitDy=0;entryX=0;entryY=1;entryDx=0;entryDy=0;" edge="1" parent="1" target="en4tqzYNCNXn3bQ0T1J--28">
          <mxGeometry width="50" height="50" relative="1" as="geometry">
            <mxPoint x="287" y="-250" as="sourcePoint" />
            <mxPoint x="322" y="-363" as="targetPoint" />
            <Array as="points" />
          </mxGeometry>
        </mxCell>
        <mxCell id="en4tqzYNCNXn3bQ0T1J--36" value="" style="endArrow=block;html=1;rounded=0;endFill=0;exitX=0.5;exitY=0;exitDx=0;exitDy=0;entryX=0.367;entryY=0.988;entryDx=0;entryDy=0;entryPerimeter=0;" edge="1" parent="1" source="en4tqzYNCNXn3bQ0T1J--33" target="en4tqzYNCNXn3bQ0T1J--28">
          <mxGeometry width="50" height="50" relative="1" as="geometry">
            <mxPoint x="420" y="-237" as="sourcePoint" />
            <mxPoint x="455" y="-350" as="targetPoint" />
            <Array as="points" />
          </mxGeometry>
        </mxCell>
        <mxCell id="en4tqzYNCNXn3bQ0T1J--37" value="" style="endArrow=block;html=1;rounded=0;endFill=0;exitX=0.5;exitY=0;exitDx=0;exitDy=0;entryX=0.717;entryY=0.938;entryDx=0;entryDy=0;entryPerimeter=0;" edge="1" parent="1" source="en4tqzYNCNXn3bQ0T1J--34" target="en4tqzYNCNXn3bQ0T1J--28">
          <mxGeometry width="50" height="50" relative="1" as="geometry">
            <mxPoint x="480" y="-259" as="sourcePoint" />
            <mxPoint x="504" y="-350" as="targetPoint" />
            <Array as="points" />
          </mxGeometry>
        </mxCell>
        <mxCell id="en4tqzYNCNXn3bQ0T1J--38" value="" style="endArrow=block;html=1;rounded=0;endFill=0;exitX=0.5;exitY=0;exitDx=0;exitDy=0;entryX=0.95;entryY=0.738;entryDx=0;entryDy=0;entryPerimeter=0;" edge="1" parent="1" target="en4tqzYNCNXn3bQ0T1J--28">
          <mxGeometry width="50" height="50" relative="1" as="geometry">
            <mxPoint x="754" y="-250" as="sourcePoint" />
            <mxPoint x="660" y="-345" as="targetPoint" />
            <Array as="points" />
          </mxGeometry>
        </mxCell>
      </root>
    </mxGraphModel>
  </diagram>
</mxfile>
